<svg width="17" height="17" viewBox="0 0 17 17" fill="none" xmlns="http://www.w3.org/2000/svg">
                        <path d="M8.5 0C13.1946 0 17 3.80545 17 8.5C17 13.1946 13.1946 17 8.5 17C3.80545 17 0 13.1946 0 8.5C0 3.80545 3.80545 0 8.5 0ZM8.5 1.7C6.69653 1.7 4.96692 2.41643 3.69167 3.69167C2.41643 4.96692 1.7 6.69653 1.7 8.5C1.7 10.3035 2.41643 12.0331 3.69167 13.3083C4.96692 14.5836 6.69653 15.3 8.5 15.3C10.3035 15.3 12.0331 14.5836 13.3083 13.3083C14.5836 12.0331 15.3 10.3035 15.3 8.5C15.3 6.69653 14.5836 4.96692 13.3083 3.69167C12.0331 2.41643 10.3035 1.7 8.5 1.7ZM8.5 11.9C8.72543 11.9 8.94163 11.9896 9.10104 12.149C9.26045 12.3084 9.35 12.5246 9.35 12.75C9.35 12.9754 9.26045 13.1916 9.10104 13.351C8.94163 13.5104 8.72543 13.6 8.5 13.6C8.27457 13.6 8.05837 13.5104 7.89896 13.351C7.73955 13.1916 7.65 12.9754 7.65 12.75C7.65 12.5246 7.73955 12.3084 7.89896 12.149C8.05837 11.9896 8.27457 11.9 8.5 11.9ZM8.5 3.825C9.21594 3.82502 9.90952 4.07435 10.4616 4.53016C11.0137 4.98597 11.3898 5.61981 11.5254 6.32279C11.661 7.02578 11.5475 7.75403 11.2045 8.38245C10.8615 9.01088 10.3104 9.50025 9.6458 9.7665C9.54736 9.8027 9.45864 9.86117 9.38655 9.93735C9.34915 9.97985 9.3432 10.0343 9.34405 10.0904L9.35 10.2C9.34976 10.4166 9.2668 10.625 9.11808 10.7826C8.96936 10.9401 8.76609 11.0349 8.54981 11.0476C8.33354 11.0603 8.12058 10.9899 7.95444 10.8509C7.78831 10.7118 7.68154 10.5146 7.65595 10.2994L7.65 10.2V9.9875C7.65 9.00745 8.4405 8.41925 9.0134 8.1889C9.24657 8.09579 9.44997 7.94093 9.60176 7.74094C9.75355 7.54095 9.848 7.30339 9.87496 7.05377C9.90192 6.80416 9.86038 6.55191 9.75479 6.32412C9.6492 6.09633 9.48356 5.90161 9.27566 5.76086C9.06775 5.62011 8.82543 5.53865 8.57472 5.52523C8.32401 5.51181 8.07438 5.56694 7.85263 5.68469C7.63089 5.80244 7.44541 5.97838 7.31612 6.19359C7.18682 6.40881 7.11859 6.65518 7.11875 6.90625C7.11875 7.13168 7.0292 7.34788 6.86979 7.50729C6.71038 7.6667 6.49418 7.75625 6.26875 7.75625C6.04332 7.75625 5.82712 7.6667 5.66771 7.50729C5.5083 7.34788 5.41875 7.13168 5.41875 6.90625C5.41875 6.08905 5.74338 5.30532 6.32123 4.72748C6.89907 4.14963 7.6828 3.825 8.5 3.825Z" fill="#2848B7"/>
                    </svg>