<svg width="16" height="17" viewBox="0 0 16 17" fill="none" xmlns="http://www.w3.org/2000/svg">
                            <path d="M7.55556 0C3.38111 0 0 1.69056 0 3.77778V13.2222C0 15.3094 3.39056 17 7.55556 17C11.7206 17 15.1111 15.3094 15.1111 13.2222V3.77778C15.1111 1.69056 11.73 0 7.55556 0ZM13.2222 13.2222C13.2222 13.6944 11.2106 15.1111 7.55556 15.1111C3.90056 15.1111 1.88889 13.6944 1.88889 13.2222V11.1161C3.40944 11.8528 5.40222 12.2778 7.55556 12.2778C9.70889 12.2778 11.7017 11.8528 13.2222 11.1161V13.2222ZM13.2222 8.925C11.9944 9.82222 9.84111 10.3889 7.55556 10.3889C5.27 10.3889 3.11667 9.82222 1.88889 8.925V6.27111C3.27722 7.055 5.29833 7.55556 7.55556 7.55556C9.81278 7.55556 11.8339 7.055 13.2222 6.27111V8.925ZM7.55556 5.66667C3.90056 5.66667 1.88889 4.25 1.88889 3.77778C1.88889 3.30556 3.90056 1.88889 7.55556 1.88889C11.2106 1.88889 13.2222 3.30556 13.2222 3.77778C13.2222 4.25 11.2106 5.66667 7.55556 5.66667Z" fill="#2848B7"/>
                        </svg>