<svg width="757" height="697" viewBox="0 0 757 697" fill="none" xmlns="http://www.w3.org/2000/svg">
<path d="M373.333 0.871277C360.533 2.20459 339.333 5.8046 327.867 8.73795C260.533 25.5379 201.733 69.1379 166.267 128.471C121.333 203.938 119.2 290.871 159.867 384.338L162.667 390.738L170.933 383.805C193.067 365.405 212 348.871 212 347.671C212 347.005 210.133 342.871 207.867 338.338C201.467 325.671 193.867 300.871 191.333 284.605C188.533 267.138 189.2 231.671 192.667 216.871C211.6 132.738 286.267 69.4046 382.933 55.1379C404.4 51.9379 438 53.1379 457.333 57.8046C497.867 67.4046 525.467 82.4713 553.467 110.471C566.533 123.538 584.533 146.605 589.6 156.471C592.933 163.271 591.733 161.938 582 148.605C571.467 134.071 549.867 113.005 535.333 103.138C511.867 87.1379 484.133 75.9379 454.8 70.6046C436.133 67.2713 430.667 67.2713 443.333 70.6046C469.067 77.2713 486.4 85.4046 510 101.405C566.4 139.671 602.267 206.605 598 265.271C596.8 279.805 592.8 300.205 588.8 311.271C587.067 316.071 586 319.938 586.267 319.938C588.8 319.938 625.733 287.138 644.533 268.205L660.4 252.071L658.8 234.471C648.533 127.405 564.667 32.6046 458 7.53793C431.2 1.13794 396.667 -1.52872 373.333 0.871277Z" fill="url(#paint0_linear_2191_27)"/>
<path d="M634.133 14.338C630.267 22.0713 626.267 25.538 617.867 28.738L611.733 31.0047L618.133 33.4047C626 36.4713 630 40.2047 634.267 48.338L637.467 54.8713L640.933 47.938C644.667 40.4713 652.133 34.0713 658.933 32.6047L662.933 31.6713L657.333 29.138C648.267 25.138 644.4 21.6713 640.8 14.4713L637.467 7.67134L634.133 14.338Z" fill="url(#paint1_linear_2191_27)"/>
<path d="M696.067 58.2712C692.2 66.0046 688.2 69.4712 679.8 72.6712L673.667 74.9379L680.067 77.3379C687.933 80.4046 691.933 84.1379 696.2 92.2712L699.4 98.8046L702.867 91.8712C706.6 84.4046 714.067 78.0046 720.867 76.5379L724.867 75.6046L719.267 73.0712C710.2 69.0712 706.333 65.6046 702.733 58.4046L699.4 51.6046L696.067 58.2712Z" fill="#FFC107"/>
<path d="M386.667 100.205C380 102.071 379.333 103.005 374.933 114.338C372.667 119.938 370.533 125.671 370 126.871C369.333 128.738 370.267 129.271 375.6 129.938C379.067 130.471 382.933 131.138 384.133 131.405C385.733 131.805 387.067 130.071 389.067 125.271C392.8 116.471 396 115.005 407.6 116.871C418.267 118.738 429.6 124.205 432 128.605C433.467 131.405 433.333 133.138 431.333 140.605C430.133 145.405 428.4 149.271 427.467 149.271C426.667 149.271 421.333 147.805 415.6 145.938C396 139.671 373.867 135.805 353.333 135.005C313.733 133.538 299.6 141.538 282.667 174.605C269.467 200.738 270.267 209.671 287.067 217.271C307.467 226.471 342.533 235.538 362.8 236.871C374.267 237.538 376.4 237.405 381.467 234.871C388.8 231.271 392 226.605 398.667 209.538C405.6 191.805 408.533 186.205 414.4 179.671C420.533 172.871 427.733 168.205 437.867 164.471C446.667 161.271 446 162.471 451.467 139.805C455.067 124.871 450 114.871 434.933 106.871C421.2 99.5381 399.467 96.4714 386.667 100.205Z" fill="#171717"/>
<path d="M652.667 123.538C641.6 124.871 642 125.538 655.333 128.605C673.867 132.871 682.933 136.338 693.067 142.871C722.667 162.071 723.333 192.471 695.333 235.805C670.667 273.938 630.533 310.871 574 347.671C561.333 355.938 550.8 364.205 541.333 373.138C523.467 390.205 519.6 393.271 503.867 402.071C482.933 413.805 457.333 422.471 430.667 426.871C415.333 429.405 379.067 429.005 364.667 426.205C317.333 416.871 280.8 393.938 248.4 353.271C236.4 338.205 227.867 322.338 221.333 302.871C203.733 250.338 214 186.471 246.933 142.871C250.667 137.938 252.133 135.405 250.133 137.271C244.8 142.071 227.467 168.605 222.533 179.271C210.933 205.005 206.667 224.205 206.667 250.471C206.667 285.805 215.067 315.938 234.133 348.871C235.467 351.138 236.267 353.405 236 353.671C235.6 353.938 224.267 363.805 210.667 375.405C197.067 387.138 170.4 410.071 151.333 426.605C132.4 443.138 110.267 462.338 102.133 469.271C77.3333 490.471 72.5333 495.671 70.1333 503.805C67.4666 513.005 67.4666 517.138 70.1333 526.605C75.6 546.338 94 559.271 116 559.138C128.4 559.005 134.8 556.338 146.133 546.471C150.667 542.471 172.533 523.405 194.8 504.071C241.333 463.671 271.333 437.271 288.667 421.805L300.667 410.871L310.667 415.938C348.8 435.138 401.2 440.338 446.667 429.271C452.133 427.938 459.067 426.871 462 426.871C474.133 427.005 523.867 409.005 554.667 393.405C594.8 373.005 631.867 347.671 664.533 318.071C679.867 304.205 700.267 281.538 708.667 269.138C716.533 257.271 717.733 255.805 716.533 259.271C714.933 263.671 705.6 277.005 694.8 290.605C659.733 334.738 597.6 382.071 535.333 412.071C449.733 453.271 379.467 461.138 314.667 436.871L302.667 432.338L264.8 465.538L226.933 498.605L239.733 516.071C260.133 543.805 288.133 579.005 304.933 598.605C321.333 617.405 386.8 683.805 397.6 692.471C403.2 696.871 404.133 697.271 406.4 695.671C414.267 690.205 457.2 648.738 476.933 627.805C528.533 572.471 564.267 526.205 596.133 473.271C610.533 449.405 629.467 412.338 635.867 395.805C640.133 384.871 640.8 383.938 649.867 377.138C667.867 363.405 699.067 330.205 718.267 304.338C769.333 235.405 768.667 157.271 716.667 132.605C699.333 124.471 674.133 120.871 652.667 123.538Z" fill="url(#paint2_linear_2191_27)"/>
<path d="M364.667 426.205C379.067 429.005 415.333 429.405 430.667 426.871C385.2 437.938 348.8 435.138 310.667 415.938L300.667 410.871L288.667 421.805C271.333 437.271 241.333 463.671 194.8 504.071C172.533 523.405 150.667 542.471 146.133 546.471C134.8 556.338 128.4 559.005 116 559.138C94 559.271 75.6 546.338 70.1333 526.605C67.4666 517.138 67.4666 513.005 70.1333 503.805C72.5333 495.671 77.3333 490.471 102.133 469.271C110.267 462.338 132.4 443.138 151.333 426.605C170.4 410.071 197.067 387.138 210.667 375.405C224.267 363.805 235.6 353.938 236 353.671C236.267 353.405 235.467 351.138 234.133 348.871C215.067 315.938 206.667 285.805 206.667 250.471C206.667 224.205 210.933 205.005 222.533 179.271C227.467 168.605 244.8 142.071 250.133 137.271C252.133 135.405 250.667 137.938 246.933 142.871C214 186.471 203.733 250.338 221.333 302.871C227.867 322.338 236.4 338.205 248.4 353.271C280.8 393.938 317.333 416.871 364.667 426.205Z" fill="#171717"/>
<path d="M449.333 171.938C436.4 174.071 423.2 182.205 418.133 191.005C416.267 194.071 412.8 202.338 410.133 209.405C407.6 216.471 404.533 224.205 403.333 226.471C400 233.005 392.133 241.138 386.267 244.205C379.067 247.805 363.6 248.738 350.667 246.205C345.2 245.138 340.533 244.338 340.533 244.338C340.4 244.471 338.933 249.405 337.067 255.138C334.133 265.138 333.6 265.805 329.6 266.871C324.133 268.338 312.8 265.405 307.6 261.138C303.467 257.938 303.067 253.671 305.867 243.138L307.6 236.338L298.8 233.271C286.267 228.871 277.333 224.338 272.533 219.671L268.4 215.805L265.6 222.871C260.267 235.938 258.4 245.805 257.733 263.271C257.2 277.271 257.6 283.005 259.733 293.538C268.133 333.938 295.2 367.005 337.067 387.938C358 398.338 384.133 403.405 411.733 402.338C431.333 401.538 438.4 398.471 444.4 388.071C448.667 380.871 448.933 380.605 457.2 379.005C470.133 376.338 491.867 368.738 504.8 362.205C542.533 343.271 553.6 322.738 544.8 288.338C538.133 262.205 529.333 242.205 514.933 220.605C503.867 203.805 493.467 192.338 478.667 180.605C464.933 169.805 463.867 169.405 449.333 171.938ZM486.667 251.271C495.333 276.605 498.8 293.138 499.067 309.271C499.2 318.871 498.667 323.005 496.933 326.338C494 331.671 486.533 336.738 478.667 338.471C472.267 339.938 459.6 340.471 458.4 339.271C458 338.871 459.333 330.205 461.467 320.205C463.6 310.205 467.2 292.071 469.333 279.938C474.4 252.205 478.933 230.471 479.467 230.871C479.6 231.138 482.933 240.338 486.667 251.271Z" fill="#171717"/>
<path d="M95.3333 266.205C59.7333 294.338 36.2667 319.805 19.2 348.738C5.46667 372.205 0 390.071 0 412.738C0 433.938 4.93333 447.138 18.6667 461.805C27.8667 471.538 35.8667 477.138 48 482.071L56.4 485.405L65.2 476.871C74.6667 467.805 112 435.005 127.067 422.738L136.133 415.271L117.067 414.471C95.6 413.538 88.8 412.071 75.2 405.938C57.7333 397.938 49.4667 386.071 48.2667 367.405C47.6 355.405 49.2 346.338 54.9333 331.938C61.8667 314.605 79.0667 288.338 96.2667 268.871C101.467 263.271 105.333 258.605 105.067 258.738C104.8 258.738 100.533 262.071 95.3333 266.205Z" fill="url(#paint3_linear_2191_27)"/>
<defs>
<linearGradient id="paint0_linear_2191_27" x1="395.644" y1="3.05176e-05" x2="395.644" y2="390.738" gradientUnits="userSpaceOnUse">
<stop stop-color="#2848B7"/>
<stop offset="1" stop-color="#0C298D"/>
</linearGradient>
<linearGradient id="paint1_linear_2191_27" x1="637.333" y1="7.67133" x2="637.333" y2="54.8713" gradientUnits="userSpaceOnUse">
<stop stop-color="#2848B7"/>
<stop offset="1" stop-color="#0C298D"/>
</linearGradient>
<linearGradient id="paint2_linear_2191_27" x1="412.127" y1="122.669" x2="412.127" y2="696.531" gradientUnits="userSpaceOnUse">
<stop stop-color="#2848B7"/>
<stop offset="1" stop-color="#0C298D"/>
</linearGradient>
<linearGradient id="paint3_linear_2191_27" x1="68.0667" y1="258.735" x2="68.0667" y2="485.405" gradientUnits="userSpaceOnUse">
<stop stop-color="#2848B7"/>
<stop offset="1" stop-color="#0C298D"/>
</linearGradient>
</defs>
</svg>
