<svg width="42" height="49" viewBox="0 0 42 49" fill="none" xmlns="http://www.w3.org/2000/svg">
<path fill-rule="evenodd" clip-rule="evenodd" d="M42 21C42 9.40202 32.598 0 21 0C9.40202 0 0 9.40202 0 21C0 23.8711 0.576173 26.6076 1.6192 29.1003C5.94533 40.912 21.1104 49 21.1104 49C21.1104 49 39.7389 39.0648 41.5928 25.1361C41.8599 23.7989 42 22.4158 42 21Z" fill="white"/>
<path fill-rule="evenodd" clip-rule="evenodd" d="M38.6509 24.7849L38.6318 24.8814L38.619 24.9789C37.8426 30.8763 33.4427 36.2795 28.6948 40.4277C26.3812 42.4489 24.1126 44.0616 22.42 45.1691C21.9283 45.4908 21.4872 45.7686 21.1104 46C20.8599 45.8462 20.5811 45.672 20.2779 45.4779C18.8615 44.5714 16.9286 43.2433 14.8719 41.5641C10.6804 38.142 6.31788 33.5375 4.4362 28.3436L4.41287 28.2792L4.38668 28.2159C3.4944 26.0601 3 23.691 3 21.1975C3 11.1473 11.0589 3 21 3C30.9411 3 39 11.1473 39 21.1975C39 22.4283 38.8796 23.6276 38.6509 24.7849Z" fill="#E7000B"/>
<path d="M29 21C29 16.5817 25.4183 13 21 13C16.5817 13 13 16.5817 13 21C13 25.4183 16.5817 29 21 29C25.4183 29 29 25.4183 29 21Z" fill="#FEFEFE"/>
<path d="M23.222 19.3333C23.2224 18.8193 23.0532 18.3195 22.7404 17.9115C22.4276 17.5035 21.9889 17.2103 21.4924 17.0773C20.9958 16.9443 20.4692 16.9789 19.9944 17.1759C19.5196 17.3729 19.1232 17.7212 18.8666 18.1667C18.7782 18.3199 18.7543 18.5019 18.8001 18.6728C18.8459 18.8436 18.9577 18.9893 19.111 19.0777C19.2642 19.1661 19.4462 19.19 19.6171 19.1442C19.7879 19.0984 19.9335 18.9866 20.022 18.8333C20.1098 18.6812 20.2361 18.5549 20.3883 18.4672C20.5404 18.3794 20.713 18.3332 20.8886 18.3333C21.1538 18.3333 21.4082 18.4387 21.5957 18.6262C21.7833 18.8138 21.8886 19.0681 21.8886 19.3333C21.8886 19.5986 21.7833 19.8529 21.5957 20.0405C21.4082 20.228 21.1538 20.3333 20.8886 20.3333H20.8866C20.8437 20.3379 20.8012 20.3466 20.76 20.3593C20.7152 20.3638 20.6709 20.3727 20.628 20.386C20.5914 20.4061 20.5568 20.4295 20.5246 20.456C20.4863 20.4769 20.4501 20.5014 20.4166 20.5293C20.3866 20.5652 20.3605 20.6041 20.3386 20.6453C20.3143 20.6754 20.2927 20.7075 20.274 20.7413C20.2593 20.7873 20.2497 20.8347 20.2453 20.8827C20.234 20.921 20.2262 20.9603 20.222 21V21.6667L20.2233 21.674V22.0013C20.2236 22.1779 20.294 22.3472 20.419 22.4719C20.544 22.5966 20.7134 22.6667 20.89 22.6667H20.892C20.9795 22.6665 21.0662 22.6491 21.147 22.6154C21.2278 22.5818 21.3012 22.5325 21.363 22.4705C21.4247 22.4084 21.4737 22.3349 21.5071 22.2539C21.5404 22.173 21.5575 22.0862 21.5573 21.9987L21.556 21.5573C22.036 21.4152 22.4573 21.122 22.7574 20.7214C23.0576 20.3207 23.2205 19.8339 23.222 19.3333ZM20.42 23.86C20.3263 23.9529 20.2624 24.0714 20.2361 24.2006C20.2098 24.3298 20.2225 24.4639 20.2724 24.5859C20.3224 24.7079 20.4074 24.8124 20.5167 24.8861C20.626 24.9598 20.7548 24.9995 20.8866 25C21.0633 24.9982 21.2326 24.9291 21.36 24.8067C21.4837 24.6802 21.5531 24.5103 21.5531 24.3333C21.5531 24.1564 21.4837 23.9865 21.36 23.86C21.2323 23.7411 21.0644 23.6749 20.89 23.6749C20.7155 23.6749 20.5476 23.7411 20.42 23.86Z" fill="#E7000B"/>
</svg>
