<svg width="59" height="59" viewBox="0 0 59 59" fill="none" xmlns="http://www.w3.org/2000/svg">
<path d="M53.8517 24.5407C51.2171 10.9873 38.0942 2.13571 24.5408 4.77024C10.9873 7.40476 2.13578 20.5277 4.7703 34.0811C7.40482 47.6346 20.5278 56.4861 34.0812 53.8516C47.6347 51.2171 56.4862 38.0941 53.8517 24.5407Z" fill="#3478F5" fill-opacity="0.2"/>
<path d="M41.0904 27.0212C39.8258 20.5155 33.5268 16.2668 27.0212 17.5314C20.5155 18.7959 16.2668 25.0949 17.5313 31.6006C18.7959 38.1063 25.0949 42.355 31.6006 41.0904C38.1062 39.8258 42.355 33.5268 41.0904 27.0212Z" fill="white"/>
<path d="M39.1273 27.4028C38.0735 21.9814 32.8243 18.4408 27.4029 19.4946C21.9815 20.5485 18.4409 25.7976 19.4947 31.219C20.5486 36.6404 25.7977 40.181 31.2191 39.1272C36.6405 38.0734 40.1811 32.8242 39.1273 27.4028Z" fill="#3478F5"/>
<path fill-rule="evenodd" clip-rule="evenodd" d="M16.5775 26.6925L13.605 32.3638L18.4856 36.5087C17.7342 35.047 17.1709 33.4455 16.8385 31.7353C16.5061 30.0252 16.4284 28.3292 16.5775 26.6925Z" fill="#3478F5"/>
</svg>
