<svg width="500" height="820" viewBox="0 0 500 820" fill="none" xmlns="http://www.w3.org/2000/svg">
<path fill-rule="evenodd" clip-rule="evenodd" d="M341.864 266.306C341.864 317.115 300.826 358.152 250.018 358.152C199.21 358.152 158.172 317.115 158.172 266.306C158.172 215.498 199.21 174.46 250.018 174.46C300.826 174.46 341.864 215.498 341.864 266.306Z" fill="white"/>
<path fill-rule="evenodd" clip-rule="evenodd" d="M250.878 33.9946C122.43 33.9946 15.5176 145.207 15.5176 265.877C15.5176 320.164 46.0808 389.145 68.1629 436.788L250.018 786.038L431.013 436.788C453.095 389.145 484.518 323.623 484.518 265.877C484.518 145.207 379.326 33.9946 250.878 33.9946ZM250.878 173.815C275.177 173.996 298.421 183.77 315.547 201.009C332.673 218.249 342.293 241.557 342.313 265.857C342.313 316.431 301.374 356.98 250.878 357.293C200.382 356.96 159.442 316.45 159.442 265.857C159.462 241.557 169.083 218.249 186.209 201.009C203.335 183.77 226.579 173.996 250.878 173.815Z" fill="#FCC800" stroke="url(#paint0_linear_3616_5774)" stroke-width="21.4959" stroke-linecap="round"/>
<defs>
<linearGradient id="paint0_linear_3616_5774" x1="250.018" y1="33.9946" x2="250.018" y2="786.038" gradientUnits="userSpaceOnUse">
<stop stop-color="#FCC800"/>
<stop offset="1" stop-color="#967700"/>
</linearGradient>
</defs>
</svg>
