<svg width="42" height="49" viewBox="0 0 42 49" fill="none" xmlns="http://www.w3.org/2000/svg">
<path fill-rule="evenodd" clip-rule="evenodd" d="M42 21C42 9.40202 32.598 0 21 0C9.40202 0 0 9.40202 0 21C0 23.8711 0.576173 26.6076 1.6192 29.1003C5.94533 40.912 21.1104 49 21.1104 49C21.1104 49 39.7389 39.0648 41.5928 25.1361C41.8599 23.7989 42 22.4158 42 21Z" fill="white"/>
<path fill-rule="evenodd" clip-rule="evenodd" d="M38.6509 24.7849L38.6318 24.8814L38.619 24.9789C37.8426 30.8763 33.4427 36.2795 28.6948 40.4277C26.3812 42.4489 24.1126 44.0616 22.42 45.1691C21.9283 45.4908 21.4872 45.7686 21.1104 46C20.8599 45.8462 20.5811 45.672 20.2779 45.4779C18.8615 44.5714 16.9286 43.2433 14.8719 41.5641C10.6804 38.142 6.31788 33.5375 4.4362 28.3436L4.41287 28.2792L4.38668 28.2159C3.4944 26.0601 3 23.691 3 21.1975C3 11.1473 11.0589 3 21 3C30.9411 3 39 11.1473 39 21.1975C39 22.4283 38.8796 23.6276 38.6509 24.7849Z" fill="#9810FA"/>
<path d="M29 21C29 16.5817 25.4183 13 21 13C16.5817 13 13 16.5817 13 21C13 25.4183 16.5817 29 21 29C25.4183 29 29 25.4183 29 21Z" fill="#FEFEFE"/>
<path d="M19.5875 20.4125C19.1958 20.0208 19 19.55 19 19C19 18.45 19.1958 17.9792 19.5875 17.5875C19.9792 17.1958 20.45 17 21 17C21.55 17 22.0208 17.1958 22.4125 17.5875C22.8042 17.9792 23 18.45 23 19C23 19.55 22.8042 20.0208 22.4125 20.4125C22.0208 20.8042 21.55 21 21 21C20.45 21 19.9792 20.8042 19.5875 20.4125ZM17 25V23.6C17 23.3167 17.073 23.0563 17.219 22.819C17.365 22.5817 17.5587 22.4003 17.8 22.275C18.3167 22.0167 18.8417 21.823 19.375 21.694C19.9083 21.565 20.45 21.5003 21 21.5C21.55 21.4997 22.0917 21.5643 22.625 21.694C23.1583 21.8237 23.6833 22.0173 24.2 22.275C24.4417 22.4 24.6355 22.5813 24.7815 22.819C24.9275 23.0567 25.0003 23.317 25 23.6V25H17Z" fill="#9810FA"/>
</svg>
