<svg width="22" height="22" viewBox="0 0 22 22" fill="none" xmlns="http://www.w3.org/2000/svg">
<path d="M5 6C5 6.26522 5.10536 6.51957 5.29289 6.70711C5.48043 6.89464 5.73478 7 6 7C6.26522 7 6.51957 6.89464 6.70711 6.70711C6.89464 6.51957 7 6.26522 7 6C7 5.73478 6.89464 5.48043 6.70711 5.29289C6.51957 5.10536 6.26522 5 6 5C5.73478 5 5.48043 5.10536 5.29289 5.29289C5.10536 5.48043 5 5.73478 5 6Z" stroke="#B9B6B4" stroke-width="2" stroke-linecap="round" stroke-linejoin="round"/>
<path d="M1 4.33301V10.0791C1.00013 10.6684 1.23431 11.2335 1.65105 11.6501L10.2169 20.2159C10.719 20.718 11.4 21 12.11 21C12.8201 21 13.5011 20.718 14.0032 20.2159L20.2159 14.0032C20.718 13.5011 21 12.8201 21 12.11C21 11.4 20.718 10.719 20.2159 10.2169L11.6501 1.65105C11.2335 1.23431 10.6684 1.00013 10.0791 1H4.33301C3.44904 1 2.60128 1.35116 1.97622 1.97622C1.35116 2.60128 1 3.44904 1 4.33301Z" stroke="#B9B6B4" stroke-width="2" stroke-linecap="round" stroke-linejoin="round"/>
</svg>
